<?xml version="1.0" standalone="no"?>
<!DOCTYPE svg PUBLIC "-//W3C//DTD SVG 20010904//EN"
 "http://www.w3.org/TR/2001/REC-SVG-20010904/DTD/svg10.dtd">
<svg version="1.0" xmlns="http://www.w3.org/2000/svg"
 width="761.000000pt" height="758.000000pt" viewBox="0 0 761.000000 758.000000"
 preserveAspectRatio="xMidYMid meet">

<g transform="translate(0.000000,758.000000) scale(0.100000,-0.100000)"
fill="#000000" stroke="none">
<path d="M2375 7332 c-162 -56 -285 -199 -316 -367 -34 -187 67 -392 240 -483
76 -41 128 -53 220 -53 187 0 336 96 418 268 29 60 36 88 40 157 14 221 -108
406 -315 475 -79 27 -214 28 -287 3z m309 -55 c200 -92 299 -305 236 -509 -11
-35 -33 -85 -50 -110 -133 -200 -411 -249 -604 -106 -89 66 -145 158 -166 276
-27 153 51 325 192 419 103 69 278 82 392 30z"/>
<path d="M3668 7331 c-167 -54 -290 -198 -318 -373 -31 -198 81 -403 267 -491
58 -27 82 -32 164 -35 108 -5 183 11 258 55 309 179 309 627 0 806 -101 58
-257 74 -371 38z m324 -64 c92 -45 157 -112 201 -205 30 -62 32 -75 32 -172 0
-97 -2 -110 -32 -172 -44 -93 -109 -160 -200 -205 -63 -31 -87 -37 -157 -41
-93 -5 -172 13 -242 54 -60 36 -141 125 -172 191 -24 52 -27 69 -27 173 0 104
3 121 27 172 30 65 103 148 163 186 71 46 140 62 241 59 82 -3 99 -7 166 -40z"/>
<path d="M4958 7331 c-284 -91 -407 -424 -254 -685 36 -62 131 -144 206 -180
61 -29 72 -31 185 -31 139 0 199 18 285 86 117 92 171 198 178 346 8 177 -65
321 -209 414 -107 68 -269 89 -391 50z m324 -64 c144 -71 229 -199 236 -357 7
-154 -56 -281 -184 -370 -122 -85 -319 -93 -444 -17 -142 87 -217 227 -208
392 9 175 118 315 293 378 38 13 73 17 141 14 82 -2 100 -7 166 -40z"/>
<path d="M2540 5850 l0 -300 65 0 65 0 0 100 c0 55 3 100 8 100 4 0 36 -45 72
-100 l65 -100 84 0 83 0 -28 38 c-15 20 -52 67 -81 104 -29 37 -53 69 -53 72
0 3 16 13 36 22 108 51 124 229 29 313 -47 41 -91 51 -227 51 l-118 0 0 -300z
m255 165 c33 -32 34 -89 3 -122 -17 -18 -32 -23 -75 -23 l-53 0 0 85 0 85 50
0 c41 0 56 -5 75 -25z"/>
<path d="M4585 5883 c-59 -147 -114 -283 -122 -301 l-14 -33 73 3 73 3 20 58
20 58 114 -3 115 -3 20 -57 21 -58 71 0 72 0 -83 203 c-45 111 -100 245 -121
297 l-39 95 -56 3 -55 3 -109 -268z m204 -6 c17 -48 31 -90 31 -93 0 -2 -31
-4 -70 -4 -38 0 -70 3 -70 8 0 19 66 190 71 184 3 -4 20 -47 38 -95z"/>
<path d="M1730 3790 l0 -2080 305 0 c298 0 305 0 305 20 0 20 -7 20 -285 20
l-285 0 0 2040 0 2040 355 0 c348 0 355 0 355 20 0 20 -7 20 -375 20 l-375 0
0 -2080z"/>
<path d="M2980 5850 c0 -20 7 -20 770 -20 763 0 770 0 770 20 0 20 -7 20 -770
20 -763 0 -770 0 -770 -20z"/>
<path d="M4970 5850 c0 -20 7 -20 440 -20 l440 0 0 -660 c0 -653 0 -660 20
-660 20 0 20 7 20 680 l0 680 -460 0 c-453 0 -460 0 -460 -20z"/>
<path d="M583 5536 c-135 -33 -246 -124 -310 -252 -38 -77 -38 -79 -38 -199 0
-120 0 -122 38 -199 157 -317 577 -358 789 -78 171 226 92 563 -163 693 -89
45 -216 59 -316 35z m182 -37 c132 -24 251 -115 308 -237 30 -63 32 -74 32
-177 0 -103 -2 -114 -32 -178 -137 -289 -531 -330 -719 -74 -160 216 -82 522
161 633 90 41 157 50 250 33z"/>
<path d="M6840 5529 c-136 -22 -280 -132 -340 -261 -142 -305 80 -659 413
-658 127 1 223 36 315 116 162 142 201 395 89 586 -62 107 -198 197 -327 217
-73 12 -74 12 -150 0z m252 -71 c104 -48 190 -145 228 -259 18 -52 21 -81 18
-151 -4 -75 -9 -96 -41 -161 -102 -206 -347 -294 -552 -199 -165 78 -253 226
-243 411 6 108 36 179 110 257 98 104 175 135 323 131 82 -3 110 -8 157 -29z"/>
<path d="M5660 4395 l0 -65 110 0 c61 0 110 -3 110 -6 0 -7 -114 -226 -197
-381 l-45 -83 226 0 226 0 0 60 0 60 -116 0 c-64 0 -114 4 -112 8 2 5 56 110
121 234 64 124 117 228 117 231 0 2 -99 5 -220 6 l-220 2 0 -66z"/>
<path d="M583 4246 c-133 -33 -247 -126 -311 -254 -37 -75 -37 -77 -37 -196 0
-119 1 -122 37 -199 153 -320 584 -360 794 -75 167 228 84 567 -169 687 -107
50 -209 62 -314 37z m178 -36 c136 -26 249 -112 310 -235 32 -66 34 -75 34
-180 0 -103 -2 -114 -32 -178 -126 -265 -468 -327 -677 -124 -113 111 -154
273 -107 424 44 147 172 263 324 292 60 12 87 12 148 1z"/>
<path d="M6840 4239 c-87 -14 -188 -69 -253 -138 -284 -298 -77 -781 334 -781
260 0 459 200 459 461 0 289 -254 505 -540 458z m213 -58 c111 -38 198 -118
251 -230 29 -61 31 -74 31 -171 0 -97 -2 -110 -32 -172 -44 -94 -109 -160
-202 -206 -72 -36 -79 -37 -180 -37 -98 0 -111 2 -173 32 -117 55 -200 150
-233 267 -25 85 -17 212 18 289 28 61 109 154 163 188 99 61 248 77 357 40z"/>
<path d="M5850 2970 c0 -833 0 -840 20 -840 20 0 20 7 20 840 0 833 0 840 -20
840 -20 0 -20 -7 -20 -840z"/>
<path d="M620 2963 c-48 -7 -145 -46 -185 -73 -65 -45 -134 -126 -168 -198
-30 -64 -32 -73 -32 -187 0 -118 1 -121 37 -198 135 -282 495 -355 729 -148
154 135 196 354 105 547 -84 179 -291 288 -486 257z m216 -64 c110 -41 194
-121 246 -234 20 -43 23 -67 23 -161 0 -107 -1 -112 -38 -186 -156 -316 -600
-313 -756 4 -66 133 -50 311 37 426 118 157 311 217 488 151z"/>
<path d="M6845 2949 c-89 -13 -190 -67 -258 -138 -283 -297 -77 -781 332 -781
126 0 227 39 317 122 159 147 192 404 74 588 -66 102 -196 191 -302 205 -87
12 -104 12 -163 4z m196 -55 c112 -33 208 -117 262 -232 30 -62 32 -75 32
-172 0 -97 -2 -110 -32 -172 -44 -94 -109 -160 -202 -206 -72 -36 -79 -37
-180 -37 -98 0 -111 2 -173 32 -113 53 -196 146 -233 262 -26 78 -17 216 18
294 28 61 109 154 164 189 90 55 238 73 344 42z"/>
<path d="M5767 2026 c-65 -24 -138 -90 -175 -161 -38 -73 -38 -178 1 -257 94
-192 340 -237 487 -89 132 132 127 321 -11 445 -27 24 -70 51 -96 60 -56 19
-154 20 -206 2z m187 -140 c53 -31 86 -89 86 -150 0 -80 -50 -143 -130 -167
-112 -34 -242 93 -211 206 31 115 156 169 255 111z"/>
<path d="M2467 2023 c-5 -7 -117 -572 -117 -587 0 -4 33 -6 73 -4 l72 3 31
180 c17 99 33 189 35 200 3 11 23 -47 47 -130 23 -82 49 -174 57 -203 l16 -53
66 3 65 3 56 199 c31 109 58 193 60 187 2 -6 18 -96 36 -199 l32 -187 72 -3
c40 -2 72 1 72 5 0 4 -25 135 -55 291 -30 155 -55 287 -55 292 0 6 -35 10 -79
10 l-80 0 -25 -82 c-13 -46 -39 -132 -56 -193 -18 -60 -36 -116 -40 -123 -4
-8 -33 74 -67 190 l-61 203 -75 3 c-41 2 -78 -1 -80 -5z"/>
<path d="M3140 1730 c0 -20 7 -20 1175 -20 1168 0 1175 0 1175 20 0 20 -7 20
-1175 20 -1168 0 -1175 0 -1175 -20z"/>
<path d="M2385 1132 c-215 -74 -351 -296 -315 -511 22 -132 111 -265 218 -328
139 -82 335 -84 471 -6 144 83 231 234 231 401 0 209 -126 382 -321 443 -79
25 -214 25 -284 1z m327 -65 c92 -45 157 -112 201 -205 30 -62 32 -75 32 -172
0 -97 -2 -110 -32 -172 -44 -93 -109 -160 -200 -205 -63 -31 -87 -37 -157 -41
-93 -5 -172 13 -242 54 -60 36 -141 125 -172 191 -24 52 -27 69 -27 173 0 104
3 120 27 173 29 62 110 154 165 189 68 41 141 58 239 55 82 -3 99 -7 166 -40z"/>
<path d="M3672 1131 c-81 -30 -132 -63 -190 -125 -277 -293 -67 -776 338 -776
211 0 387 132 445 334 23 79 17 219 -13 296 -43 110 -150 218 -259 261 -83 33
-245 37 -321 10z m280 -42 c114 -38 198 -114 252 -228 29 -61 31 -74 31 -171
0 -97 -2 -110 -32 -172 -44 -94 -109 -160 -202 -206 -72 -36 -79 -37 -180 -37
-98 0 -111 2 -173 32 -157 74 -248 215 -248 383 0 287 281 491 552 399z"/>
<path d="M4968 1131 c-194 -64 -318 -236 -318 -442 0 -261 199 -459 461 -459
137 0 245 46 337 144 215 227 146 594 -137 734 -70 35 -81 37 -180 39 -82 2
-119 -1 -163 -16z m263 -37 c30 -9 73 -27 95 -40 60 -35 141 -125 172 -191 24
-52 27 -69 27 -173 0 -107 -2 -119 -29 -175 -53 -108 -143 -187 -257 -225 -52
-18 -81 -21 -151 -18 -75 4 -96 9 -161 41 -91 45 -156 112 -200 205 -30 62
-32 75 -32 172 0 97 2 110 32 172 92 194 303 291 504 232z"/>
</g>
</svg>
